<svg xmlns="http://www.w3.org/2000/svg" viewBox="0 0 1600 1000">
  <defs>
    <linearGradient id="bg" x1="0" x2="1" y1="0" y2="1">
      <stop offset="0" stop-color="#4b1f27"/>
      <stop offset=".52" stop-color="#8f2f3c"/>
      <stop offset="1" stop-color="#f4a261"/>
    </linearGradient>
    <radialGradient id="glow" cx="72%" cy="22%" r="55%">
      <stop offset="0" stop-color="#fff4dc" stop-opacity=".82"/>
      <stop offset="1" stop-color="#fff4dc" stop-opacity="0"/>
    </radialGradient>
  </defs>
  <rect width="1600" height="1000" fill="url(#bg)"/>
  <rect width="1600" height="1000" fill="url(#glow)"/>
  <g opacity=".22" fill="none" stroke="#fff7ed" stroke-width="5">
    <path d="M130 120c80 60 170 60 250 0M1320 120c60 58 122 58 182 0M160 820c90-70 180-70 270 0"/>
    <path d="M230 180c42 32 82 32 124 0M1230 790c84-66 170-66 254 0"/>
  </g>
  <g transform="translate(780 165)">
    <path d="M-330 320h660" stroke="#f9d38d" stroke-width="24" stroke-linecap="round"/>
    <path d="M-285 320V45M285 320V45" stroke="#f9d38d" stroke-width="26" stroke-linecap="round"/>
    <path d="M-360 58C-185-60 185-60 360 58" fill="none" stroke="#fff7ed" stroke-width="30" stroke-linecap="round"/>
    <path d="M-305 78C-160-10 160-10 305 78" fill="none" stroke="#f4a261" stroke-width="22" stroke-linecap="round"/>
    <g fill="#ffd166">
      <circle cx="-245" cy="116" r="18"/><circle cx="-175" cy="91" r="15"/><circle cx="-92" cy="72" r="18"/>
      <circle cx="0" cy="66" r="16"/><circle cx="92" cy="72" r="18"/><circle cx="175" cy="91" r="15"/><circle cx="245" cy="116" r="18"/>
    </g>
    <g fill="#fff7ed" opacity=".9">
      <path d="M-185 198c44-60 116-60 160 0" opacity=".5"/>
      <path d="M25 198c44-60 116-60 160 0" opacity=".5"/>
      <circle cx="-105" cy="160" r="46"/>
      <circle cx="105" cy="160" r="46"/>
      <path d="M-210 360c25-95 76-150 137-150 50 0 92 38 118 105 26-67 68-105 118-105 61 0 112 55 137 150z"/>
    </g>
    <path d="M-55 248c35 34 75 34 110 0" stroke="#8f2f3c" stroke-width="16" stroke-linecap="round" fill="none" opacity=".6"/>
  </g>
  <g transform="translate(210 735)">
    <path d="M0 72c45-42 95-42 140 0" fill="none" stroke="#f4a261" stroke-width="20" stroke-linecap="round"/>
    <path d="M70 0c55 62 55 115 0 158C15 115 15 62 70 0z" fill="#fff7ed" opacity=".82"/>
    <circle cx="70" cy="82" r="20" fill="#ffd166"/>
  </g>
  <g transform="translate(1310 690)">
    <path d="M0 72c45-42 95-42 140 0" fill="none" stroke="#f4a261" stroke-width="20" stroke-linecap="round"/>
    <path d="M70 0c55 62 55 115 0 158C15 115 15 62 70 0z" fill="#fff7ed" opacity=".82"/>
    <circle cx="70" cy="82" r="20" fill="#ffd166"/>
  </g>
</svg>
